Run_50003
nRows=4
nColumns=173

# SIMM Motion File Header:
name Run_50003
datacolumns 173
datarows 4
otherdata 1
range 0.08000000 0.11000000
endheader
time	pelvis_tilt	pelvis_list	pelvis_rotation	pelvis_tx	pelvis_ty	pelvis_tz	hip_flexion_r	hip_adduction_r	hip_rotation_r	knee_angle_r	ankle_angle_r	hip_flexion_l	hip_adduction_l	hip_rotation_l	knee_angle_l	ankle_angle_l	lumbar_extension	lumbar_bending	lumbar_rotation	arm_flex_r	arm_add_r	arm_rot_r	elbow_flex_r	pro_sup_r	arm_flex_l	arm_add_l	arm_rot_l	elbow_flex_l	pro_sup_l	subtalar_angle_r	mtp_angle_r	subtalar_angle_l	mtp_angle_l	wrist_flex_r	wrist_dev_r	wrist_flex_l	wrist_dev_l	LASI_tx	LASI_ty	LASI_tz	RASI_tx	RASI_ty	RASI_tz	LPSI_tx	LPSI_ty	LPSI_tz	RPSI_tx	RPSI_ty	RPSI_tz	RTH1_tx	RTH1_ty	RTH1_tz	RTH2_tx	RTH2_ty	RTH2_tz	RTH3_tx	RTH3_ty	RTH3_tz	LTH1_tx	LTH1_ty	LTH1_tz	LTH2_tx	LTH2_ty	LTH2_tz	LTH3_tx	LTH3_ty	LTH3_tz	RTB1_tx	RTB1_ty	RTB1_tz	RTB2_tx	RTB2_ty	RTB2_tz	RTB3_tx	RTB3_ty	RTB3_tz	RLMAL_tx	RLMAL_ty	RLMAL_tz	RMMAL_tx	RMMAL_ty	RMMAL_tz	LTB1_tx	LTB1_ty	LTB1_tz	LTB2_tx	LTB2_ty	LTB2_tz	LTB3_tx	LTB3_ty	LTB3_tz	RCAL_tx	RCAL_ty	RCAL_tz	RTOE_tx	RTOE_ty	RTOE_tz	RMT5_tx	RMT5_ty	RMT5_tz	LCAL_tx	LCAL_ty	LCAL_tz	LTOE_tx	LTOE_ty	LTOE_tz	LMT5_tx	LMT5_ty	LMT5_tz	LACR_tx	LACR_ty	LACR_tz	RACR_tx	RACR_ty	RACR_tz	CLAV_tx	CLAV_ty	CLAV_tz	C7_tx	C7_ty	C7_tz	LPSH_tx	LPSH_ty	LPSH_tz	RUA1_tx	RUA1_ty	RUA1_tz	RUA2_tx	RUA2_ty	RUA2_tz	RUA3_tx	RUA3_ty	RUA3_tz	RLEL_tx	RLEL_ty	RLEL_tz	RMEL_tx	RMEL_ty	RMEL_tz	LUA1_tx	LUA1_ty	LUA1_tz	LUA2_tx	LUA2_ty	LUA2_tz	LUA3_tx	LUA3_ty	LUA3_tz	LLEL_tx	LLEL_ty	LLEL_tz	LMEL_tx	LMEL_ty	LMEL_tz	RFAsuperior_tx	RFAsuperior_ty	RFAsuperior_tz	RFAradius_tx	RFAradius_ty	RFAradius_tz	RFAulna_tx	RFAulna_ty	RFAulna_tz	LFAsuperior_tx	LFAsuperior_ty	LFAsuperior_tz	LFAradius_tx	LFAradius_ty	LFAradius_tz	LFAulna_tx	LFAulna_ty	LFAulna_tz
      0.08000000	     -3.87852703	      1.47781014	      3.71657368	      0.91162242	      1.01326802	     -0.33534531	     15.40410739	      3.59645037	     -4.97761676	   -114.62631202	      1.01844103	     24.17306701	     10.78039725	     10.03643454	    -27.28794071	      7.05542034	     -4.65839405	     -5.93519970	     -0.47312112	    -40.37643594	    -24.66232476	    -22.62342474	    103.73574518	     95.91802654	    -29.32569995	    -24.36155467	     -7.24267021	    104.80333203	     84.21236712	      0.00000000	      0.00000000	      0.00000000	      0.00000000	      0.00000000	      0.00000000	      0.00000000	      0.00000000	      0.91296549	      1.05356849	     -0.44776741	      0.93115920	      1.05247680	     -0.21635942	      0.75426514	      1.09113253	     -0.36699320	      0.76303011	      1.08843042	     -0.27852874	      0.85715404	      0.78188825	     -0.16893338	      0.94024471	      0.71932831	     -0.19038067	      0.88359363	      0.61610130	     -0.20234587	      0.84766127	      0.83015603	     -0.48979065	      0.95408255	      0.74750859	     -0.47336088	      0.93196384	      0.63679700	     -0.45892220	      0.78065928	      0.49120333	     -0.25458272	      0.72882214	      0.54280501	     -0.21447946	      0.60487220	      0.54155798	     -0.26077344	      0.50554584	      0.60677817	     -0.24588154	      0.51734913	      0.57291882	     -0.32430814	      1.01044459	      0.41164208	     -0.40532304	      0.93008716	      0.30847377	     -0.42615994	      0.97886057	      0.22247865	     -0.36914246	      0.49169266	      0.65871485	     -0.32053298	      0.41827308	      0.45470669	     -0.26207789	      0.42352517	      0.53433527	     -0.20324651	      0.86006851	      0.08939898	     -0.31108174	      1.08957269	      0.07061946	     -0.32133689	      1.02617773	      0.05397543	     -0.39186744	      0.88308513	      1.53528561	     -0.52263766	      0.90223144	      1.55069502	     -0.20920717	      0.96516826	      1.48015784	     -0.34170132	      0.84772844	      1.56646688	     -0.36146819	      0.80074994	      1.50311754	     -0.52757899	      0.82404884	      1.46456105	     -0.09312289	      0.73749854	      1.43152292	     -0.10368428	      0.72495877	      1.40519613	     -0.03777760	      0.71646541	      1.35147410	      0.01572032	      0.68606234	      1.31447694	     -0.05739384	      0.78737021	      1.43125715	     -0.59828149	      0.72014404	      1.36338359	     -0.58034899	      0.72314719	      1.32569465	     -0.64678394	      0.70783815	      1.24952187	     -0.67943543	      0.68345937	      1.23591765	     -0.59468710	      0.74730537	      1.27575085	      0.02944634	      0.92160966	      1.19673594	     -0.02769414	      0.89429778	      1.15379236	      0.01579070	      0.75696281	      1.16578488	     -0.65422880	      0.92464138	      1.15233958	     -0.59640074	      0.90181235	      1.09077740	     -0.61194005
      0.09000000	     -4.16493489	      2.21702865	      3.63053639	      0.90792517	      1.00470153	     -0.33641190	     20.77522509	      1.97359364	     -4.74713646	   -118.58941640	      1.92610631	     23.85848298	     12.20114529	      8.96079059	    -31.55298651	     12.08957439	     -4.92242646	     -6.83032905	     -1.95363273	    -40.59324441	    -25.03736429	    -24.56070505	    100.58899757	     94.02838989	    -27.04705385	    -24.97248428	     -6.65696649	    103.66845544	     85.91530232	      0.00000000	      0.00000000	      0.00000000	      0.00000000	      0.00000000	      0.00000000	      0.00000000	      0.00000000	      0.90987542	      1.04438455	     -0.44784495	      0.92853517	      1.04316051	     -0.21581089	      0.75047481	      1.08476720	     -0.36915819	      0.75873741	      1.08058553	     -0.28013156	      0.86860520	      0.77582352	     -0.16859198	      0.95722897	      0.71798083	     -0.18760152	      0.91097730	      0.61170390	     -0.19869064	      0.84354506	      0.82314138	     -0.49194143	      0.94662042	      0.73618956	     -0.47520793	      0.92246229	      0.62760856	     -0.45685811	      0.81572248	      0.48758767	     -0.25298670	      0.76345849	      0.53705489	     -0.21107409	      0.63907444	      0.53425235	     -0.25757073	      0.53795833	      0.59629331	     -0.24292926	      0.55106035	      0.56448815	     -0.32176579	      0.98992749	      0.40293978	     -0.39750406	      0.89975926	      0.30694158	     -0.42015346	      0.94465398	      0.21810125	     -0.36124208	      0.52156296	      0.64945046	     -0.31663660	      0.45679726	      0.44162304	     -0.26226050	      0.45921672	      0.52013274	     -0.20146039	      0.81369074	      0.09038752	     -0.30593392	      1.04417472	      0.06785075	     -0.31849153	      0.97907740	      0.05484140	     -0.38740060	      0.88757576	      1.52593201	     -0.52416610	      0.89905660	      1.54207001	     -0.20950892	      0.96554478	      1.46949871	     -0.34086682	      0.84744486	      1.55642200	     -0.36313567	      0.80509918	      1.49349000	     -0.53119880	      0.81739116	      1.45749668	     -0.09452567	      0.73100385	      1.42473258	     -0.10791042	      0.71635380	      1.40012722	     -0.04176363	      0.70458916	      1.34872980	      0.01315821	      0.67760599	      1.30925827	     -0.06010776	      0.79572631	      1.41786699	     -0.60154068	      0.72888681	      1.34814342	     -0.58728257	      0.73628964	      1.30988208	     -0.65326934	      0.72421503	      1.23419023	     -0.68572296	      0.69649437	      1.21940484	     -0.60205857	      0.73220404	      1.27254513	      0.03229408	      0.90709772	      1.18601686	     -0.00821341	      0.87503109	      1.14502403	      0.03378666	      0.77376982	      1.15161964	     -0.65975392	      0.93842220	      1.14027912	     -0.59489720	      0.91783417	      1.07811883	     -0.61330983
      0.10000000	     -4.68176862	      2.86173539	      3.93249494	      0.90372850	      0.99666567	     -0.33745012	     26.52732088	      0.55787006	     -4.53484272	   -121.66756296	      2.59401435	     23.48480250	     13.48543523	      8.41860811	    -35.16712298	     16.02534175	     -4.98952869	     -7.67712895	     -3.97038933	    -40.36442414	    -25.30989501	    -26.09846334	     97.33788392	     92.75053117	    -24.92729523	    -25.51445221	     -6.30492681	    103.01625631	     86.56546623	      0.00000000	      0.00000000	      0.00000000	      0.00000000	      0.00000000	      0.00000000	      0.00000000	      0.00000000	      0.90574324	      1.03592189	     -0.44765056	      0.92600144	      1.03387066	     -0.21601893	      0.74630467	      1.07905372	     -0.36984979	      0.75462787	      1.07395687	     -0.28079100	      0.88000297	      0.77231835	     -0.16820611	      0.97399817	      0.72010111	     -0.18542654	      0.93802793	      0.61154970	     -0.19608298	      0.83664131	      0.81764465	     -0.49296160	      0.93679308	      0.72756336	     -0.47668429	      0.91087969	      0.62037152	     -0.45529077	      0.85119679	      0.48587297	     -0.25197227	      0.79795313	      0.53253308	     -0.20854366	      0.67327923	      0.52610395	     -0.25517350	      0.56906501	      0.58343455	     -0.23998022	      0.58385979	      0.55385381	     -0.31918432	      0.96869858	      0.39560110	     -0.39282707	      0.86996910	      0.30651033	     -0.41633661	      0.90993403	      0.21482417	     -0.35636840	      0.54934942	      0.63734570	     -0.31263315	      0.49652430	      0.42521836	     -0.26219454	      0.49476088	      0.50256575	     -0.19975203	      0.76790346	      0.09154070	     -0.30173237	      0.99885153	      0.06586161	     -0.31573952	      0.93263331	      0.05548017	     -0.38361789	      0.89204099	      1.51776685	     -0.52601364	      0.89543867	      1.53490795	     -0.20972254	      0.96577246	      1.46031965	     -0.33974457	      0.84716747	      1.54811604	     -0.36505881	      0.80972186	      1.48416279	     -0.53535100	      0.81023240	      1.45084567	     -0.09573110	      0.72408785	      1.41768944	     -0.11234263	      0.70722855	      1.39487505	     -0.04620082	      0.69280112	      1.34566788	      0.00998790	      0.66938336	      1.30385483	     -0.06351657	      0.80459704	      1.40546380	     -0.60414787	      0.73783238	      1.33370558	     -0.59406807	      0.74967958	      1.29466669	     -0.65894440	      0.74103714	      1.21959033	     -0.69059723	      0.70959838	      1.20369731	     -0.60820659	      0.71718433	      1.26921862	      0.03389910	      0.89180207	      1.17622262	      0.00950994	      0.85534511	      1.13721669	      0.04998875	      0.79129613	      1.13879279	     -0.66328046	      0.95316643	      1.13071112	     -0.59283408	      0.93475344	      1.06799445	     -0.61288114
      0.11000000	     -5.59562728	      3.19449659	      4.65081034	      0.89897110	      0.98987406	     -0.33825449	     32.79444121	     -0.40216931	     -4.38539833	   -123.49944763	      3.04632660	     23.05915106	     14.34072096	      8.54056511	    -37.80924327	     18.97266080	     -4.65734916	     -8.24251204	     -6.50795171	    -39.70935792	    -25.34342792	    -27.21529464	     94.12599973	     92.41514382	    -22.98051856	    -25.82760392	     -6.22091319	    103.07210658	     86.14925336	      0.00000000	      0.00000000	      0.00000000	      0.00000000	      0.00000000	      0.00000000	      0.00000000	      0.00000000	      0.90081852	      1.02874429	     -0.44724371	      0.92353986	      1.02532342	     -0.21686539	      0.74206365	      1.07452163	     -0.36872830	      0.75102290	      1.06922610	     -0.28012120	      0.89156404	      0.77272830	     -0.16784796	      0.99045205	      0.72767937	     -0.18449623	      0.96426060	      0.61763438	     -0.19498160	      0.82615332	      0.81342586	     -0.49236877	      0.92391855	      0.72165932	     -0.47764492	      0.89629360	      0.61500061	     -0.45436674	      0.88676542	      0.48729312	     -0.25173359	      0.83170630	      0.52996804	     -0.20742295	      0.70702228	      0.51683893	     -0.25388232	      0.59837648	      0.56698285	     -0.23702211	      0.61530505	      0.53997474	     -0.31662693	      0.94581457	      0.38928520	     -0.39150519	      0.84078693	      0.30657297	     -0.41529837	      0.87430708	      0.21242004	     -0.35498646	      0.57412661	      0.62082284	     -0.30844014	      0.53837374	      0.40420970	     -0.26181990	      0.53048635	      0.48008673	     -0.19806196	      0.72293070	      0.09262672	     -0.29925222	      0.95377472	      0.06482068	     -0.31366284	      0.88722040	      0.05566712	     -0.38131792	      0.89647208	      1.51166288	     -0.52783455	      0.89123994	      1.52998436	     -0.20988116	      0.96566999	      1.45378731	     -0.33834439	      0.84695668	      1.54260683	     -0.36717601	      0.81467256	      1.47614303	     -0.53985677	      0.80243694	      1.44541650	     -0.09698134	      0.71679057	      1.41073878	     -0.11734325	      0.69750362	      1.38989090	     -0.05147515	      0.68127085	      1.34260972	      0.00584694	      0.66151050	      1.29861515	     -0.06786055	      0.81412319	      1.39523364	     -0.60611882	      0.74687437	      1.32136950	     -0.60006599	      0.76323236	      1.28111230	     -0.66286704	      0.75812537	      1.20675705	     -0.69309949	      0.72276442	      1.18993170	     -0.61213756	      0.70250951	      1.26613990	      0.03367261	      0.87551425	      1.16799409	      0.02418926	      0.83524425	      1.13104741	      0.06317929	      0.80960700	      1.12844801	     -0.66359949	      0.96897611	      1.12568597	     -0.58933690	      0.95286221	      1.06234659	     -0.60951187
